<?xml version="1.0" encoding="UTF-8"?>
<svg width="659px" height="143px" viewBox="0 0 659 143" version="1.1" xmlns="http://www.w3.org/2000/svg" xmlns:xlink="http://www.w3.org/1999/xlink">
    <!-- Generator: Sketch 51.3 (57544) - http://www.bohemiancoding.com/sketch -->
    <title>WARD</title>
    <desc>Created with Sketch.</desc>
    <defs></defs>
    <g id="Page-1" stroke="none" stroke-width="1" fill="none" fill-rule="evenodd">
        <path d="M87.033,143 L38.793,143 L0,0.692 L50.652,0.692 L65.928,80.69 L66.732,80.69 L83.214,0.692 L133.263,0.692 L151.152,80.69 L151.956,80.69 L167.433,0.692 L216.477,0.692 L176.88,143 L128.64,143 L108.54,62.6 L107.736,62.6 L87.033,143 Z M264.717001,0.692 L315.570001,0.692 L371.046001,143 L318.987001,143 L311.550001,122.096 L266.325001,122.096 L259.290001,143 L208.638001,143 L264.717001,0.692 Z M289.440001,50.339 L277.782001,85.514 L300.897001,85.514 L289.440001,50.339 Z M378.885001,0.692 L440.190001,0.692 C447.158036,0.692 454.092467,1.39549296 460.993501,2.8025 C467.894536,4.20950704 474.058474,6.68848224 479.485501,10.2395 C484.912528,13.7905178 489.300984,18.5474702 492.651001,24.5105 C496.001018,30.4735298 497.676001,37.9439551 497.676001,46.922 C497.676001,55.6320435 495.532022,63.3034668 491.244001,69.9365 C486.95598,76.5695332 480.792041,81.6949819 472.752001,85.313 L508.932001,143 L453.858001,143 L426.522001,92.147 L425.115001,92.147 L425.115001,143 L378.885001,143 L378.885001,0.692 Z M424.713001,60.791 L434.160001,60.791 C435.768009,60.791 437.543491,60.6570013 439.486501,60.389 C441.429511,60.1209987 443.238493,59.5515044 444.913501,58.6805 C446.588509,57.8094956 447.995495,56.6035077 449.134501,55.0625 C450.273507,53.5214923 450.843001,51.4780127 450.843001,48.932 C450.843001,46.3859873 450.374006,44.3760074 449.436001,42.902 C448.497996,41.4279926 447.292008,40.3225037 445.818001,39.5855 C444.343994,38.8484963 442.73601,38.379501 440.994001,38.1785 C439.251992,37.977499 437.644008,37.877 436.170001,37.877 L424.713001,37.877 L424.713001,60.791 Z M520.188002,143 L520.188002,0.692 L573.252002,0.692 C584.508058,0.692 595.26145,1.79748894 605.512502,4.0085 C615.763553,6.21951105 624.808462,10.0384729 632.647502,15.4655 C640.486541,20.8925271 646.750978,28.0949551 651.441002,37.073 C656.131025,46.0510449 658.476002,57.3739317 658.476002,71.042 C658.476002,83.5040623 656.231524,94.2909544 651.742502,103.403 C647.253479,112.515046 641.257039,119.985471 633.753002,125.8145 C626.248964,131.643529 617.60605,135.964986 607.824002,138.779 C598.041953,141.593014 587.858054,143 577.272002,143 L520.188002,143 Z M566.217002,41.294 L566.217002,101.996 L575.061002,101.996 C586.317058,101.996 594.959971,99.5505245 600.990002,94.6595 C607.020032,89.7684755 610.035002,81.7620556 610.035002,70.64 C610.035002,61.3939538 607.020032,54.1915258 600.990002,49.0325 C594.959971,43.8734742 586.920052,41.294 576.870002,41.294 L566.217002,41.294 Z" id="WARD" fill="#FFF008"></path>
    </g>
</svg>