<?xml version="1.0" encoding="UTF-8"?>
<svg width="657px" height="143px" viewBox="0 0 657 143" version="1.1" xmlns="http://www.w3.org/2000/svg" xmlns:xlink="http://www.w3.org/1999/xlink">
    <!-- Generator: Sketch 51.3 (57544) - http://www.bohemiancoding.com/sketch -->
    <title>WARD@2x</title>
    <desc>Created with Sketch.</desc>
    <defs></defs>
    <g id="Page-1" stroke="none" stroke-width="1" fill="none" fill-rule="evenodd">
        <path d="M87.033,143 L38.793,143 L0,0.692 L50.652,0.692 L65.928,80.69 L66.732,80.69 L83.214,0.692 L133.263,0.692 L151.152,80.69 L151.956,80.69 L167.433,0.692 L216.477,0.692 L176.88,143 L128.64,143 L108.54,62.6 L107.736,62.6 L87.033,143 Z M257.717001,0.692 L308.570001,0.692 L364.046001,143 L311.987001,143 L304.550001,122.096 L259.325001,122.096 L252.290001,143 L201.638001,143 L257.717001,0.692 Z M282.440001,50.339 L270.782001,85.514 L293.897001,85.514 L282.440001,50.339 Z M376.885001,0.692 L438.190001,0.692 C445.158036,0.692 452.092467,1.39549296 458.993501,2.8025 C465.894536,4.20950704 472.058474,6.68848224 477.485501,10.2395 C482.912528,13.7905178 487.300984,18.5474702 490.651001,24.5105 C494.001018,30.4735298 495.676001,37.9439551 495.676001,46.922 C495.676001,55.6320435 493.532022,63.3034668 489.244001,69.9365 C484.95598,76.5695332 478.792041,81.6949819 470.752001,85.313 L506.932001,143 L451.858001,143 L424.522001,92.147 L423.115001,92.147 L423.115001,143 L376.885001,143 L376.885001,0.692 Z M422.713001,60.791 L432.160001,60.791 C433.768009,60.791 435.543491,60.6570013 437.486501,60.389 C439.429511,60.1209987 441.238493,59.5515044 442.913501,58.6805 C444.588509,57.8094956 445.995495,56.6035077 447.134501,55.0625 C448.273507,53.5214923 448.843001,51.4780127 448.843001,48.932 C448.843001,46.3859873 448.374006,44.3760074 447.436001,42.902 C446.497996,41.4279926 445.292008,40.3225037 443.818001,39.5855 C442.343994,38.8484963 440.73601,38.379501 438.994001,38.1785 C437.251992,37.977499 435.644008,37.877 434.170001,37.877 L422.713001,37.877 L422.713001,60.791 Z M518.188002,143 L518.188002,0.692 L571.252002,0.692 C582.508058,0.692 593.26145,1.79748894 603.512502,4.0085 C613.763553,6.21951105 622.808462,10.0384729 630.647502,15.4655 C638.486541,20.8925271 644.750978,28.0949551 649.441002,37.073 C654.131025,46.0510449 656.476002,57.3739317 656.476002,71.042 C656.476002,83.5040623 654.231524,94.2909544 649.742502,103.403 C645.253479,112.515046 639.257039,119.985471 631.753002,125.8145 C624.248964,131.643529 615.60605,135.964986 605.824002,138.779 C596.041953,141.593014 585.858054,143 575.272002,143 L518.188002,143 Z M564.217002,41.294 L564.217002,101.996 L573.061002,101.996 C584.317058,101.996 592.959971,99.5505245 598.990002,94.6595 C605.020032,89.7684755 608.035002,81.7620556 608.035002,70.64 C608.035002,61.3939538 605.020032,54.1915258 598.990002,49.0325 C592.959971,43.8734742 584.920052,41.294 574.870002,41.294 L564.217002,41.294 Z" id="WARD" fill="#FFF008" fill-rule="nonzero"></path>
    </g>
</svg>